<svg xmlns="http://www.w3.org/2000/svg" width="512.015" height="509.081" viewBox="0 0 135.47064 134.69435"><g fill="#F37124"><path d="M135.47 67.268c0 37.222-30.323 67.426-67.695 67.426C30.357 134.694 0 104.49 0 67.268 0 30.098 30.357 0 67.775 0c37.375 0 67.696 30.1 67.696 67.268Zm-67.695-35.8c-19.965 0-36.105 16.072-36.105 35.8 0 19.863 16.14 35.85 36.105 35.85 19.875 0 35.991-15.987 35.991-35.85 0-19.728-16.116-35.8-35.99-35.8z"/><path d="M43.986 49.917v9.056c0 1.544 1.215 2.767 2.836 2.767 1.485 0 2.71-1.226 2.71-2.767v-9.056c0-1.536-1.225-2.803-2.71-2.803-1.62 0-2.836 1.267-2.836 2.803zm41.373 0v9.056c0 1.544 1.32 2.767 2.83 2.767 1.594 0 2.827-1.226 2.827-2.767v-9.056a2.804 2.804 0 0 0-2.828-2.803c-1.508 0-2.83 1.267-2.83 2.803zm-8.366 20.569c0 5.647-4.575 10.16-10.214 10.16a10.144 10.144 0 0 1-10.168-10.16c0-1.498-1.274-2.765-2.806-2.765-1.597 0-2.833 1.267-2.833 2.765 0 8.613 7.114 15.72 15.807 15.72 8.734 0 15.799-7.107 15.799-15.72 0-1.498-1.254-2.765-2.84-2.765-1.559 0-2.745 1.267-2.745 2.765z"/><path d="m65.58 51.041-6.466 6.462c-.507.487-.785 1.192-.785 1.948 0 .755.276 1.448.785 1.986l6.466 6.42c1.106 1.128 2.849 1.128 3.993 0 .507-.55.786-1.233.786-1.944 0-.69-.279-1.477-.786-1.984 0 0-2.604-2.573-4.49-4.478 1.886-1.893 4.49-4.44 4.49-4.44.507-.567.786-1.317.786-2.002 0-.742-.279-1.384-.786-1.968-1.103-1.05-2.887-1.05-3.993 0z"/></g></svg>